HIERARCHY
ROOT Hips
{
	OFFSET -341.196167 -577.024780 88.986252
	CHANNELS 6 Xposition Yposition Zposition Zrotation Yrotation Xrotation
	JOINT Spine
	{
		OFFSET 0.000000 2.080078 8.814247
		CHANNELS 6 Xposition Yposition Zposition Zrotation Yrotation Xrotation
		JOINT Spine1
		{
			OFFSET 0.000000 0.000000 8.844139
			CHANNELS 6 Xposition Yposition Zposition Zrotation Yrotation Xrotation
			JOINT Spine2
			{
				OFFSET 0.000000 0.000000 11.682266
				CHANNELS 6 Xposition Yposition Zposition Zrotation Yrotation Xrotation
				JOINT Spine3
				{
					OFFSET 0.000000 0.000000 11.746704
					CHANNELS 6 Xposition Yposition Zposition Zrotation Yrotation Xrotation
					JOINT Neck
					{
						OFFSET 0.000000 0.000000 17.658264
						CHANNELS 6 Xposition Yposition Zposition Zrotation Yrotation Xrotation
						JOINT Neck1
						{
							OFFSET 0.000000 0.000000 5.101517
							CHANNELS 6 Xposition Yposition Zposition Zrotation Yrotation Xrotation
							JOINT Head
							{
								OFFSET 0.000000 0.000000 5.101517
								CHANNELS 6 Xposition Yposition Zposition Zrotation Yrotation Xrotation
								JOINT HeadEnd
								{
									OFFSET 0.000000 0.000000 11.655090
									CHANNELS 6 Xposition Yposition Zposition Zrotation Yrotation Xrotation
									End Site
									{
										OFFSET 0.000000 0.000000 0.100006
									}
								}
							}
						}
					}
					JOINT RightShoulder
					{
						OFFSET -2.625397 0.000000 11.175217
						CHANNELS 6 Xposition Yposition Zposition Zrotation Yrotation Xrotation
						JOINT RightArm
						{
							OFFSET 0.000000 0.000000 10.434723
							CHANNELS 6 Xposition Yposition Zposition Zrotation Yrotation Xrotation
							JOINT RightForeArm
							{
								OFFSET 0.000000 0.000000 29.628418
								CHANNELS 6 Xposition Yposition Zposition Zrotation Yrotation Xrotation
								JOINT RightHand
								{
									OFFSET 0.000000 0.000000 22.857605
									CHANNELS 6 Xposition Yposition Zposition Zrotation Yrotation Xrotation
									JOINT RightHandThumb1
									{
										OFFSET -2.867310 -2.944275 3.959564
										CHANNELS 6 Xposition Yposition Zposition Zrotation Yrotation Xrotation
										JOINT RightHandThumb2
										{
											OFFSET 0.000000 0.000000 3.350403
											CHANNELS 6 Xposition Yposition Zposition Zrotation Yrotation Xrotation
											JOINT RightHandThumb3
											{
												OFFSET 0.000000 0.000000 3.756516
												CHANNELS 6 Xposition Yposition Zposition Zrotation Yrotation Xrotation
												JOINT RightHandThumb4
												{
													OFFSET 0.000000 0.000000 3.147339
													CHANNELS 6 Xposition Yposition Zposition Zrotation Yrotation Xrotation
													End Site
													{
														OFFSET 0.000000 0.000000 0.100006
													}
												}
											}
										}
									}
									JOINT RightHandIndex1
									{
										OFFSET -0.086761 -2.345276 10.030899
										CHANNELS 6 Xposition Yposition Zposition Zrotation Yrotation Xrotation
										JOINT RightHandIndex2
										{
											OFFSET 0.000000 0.000000 4.061096
											CHANNELS 6 Xposition Yposition Zposition Zrotation Yrotation Xrotation
											JOINT RightHandIndex3
											{
												OFFSET 0.000000 0.000000 3.248871
												CHANNELS 6 Xposition Yposition Zposition Zrotation Yrotation Xrotation
												JOINT RightHandIndex4
												{
													OFFSET 0.000000 0.000000 2.639709
													CHANNELS 6 Xposition Yposition Zposition Zrotation Yrotation Xrotation
													End Site
													{
														OFFSET 0.000000 0.000000 0.100006
													}
												}
											}
										}
									}
									JOINT RightHandMiddle1
									{
										OFFSET 0.104095 -0.006775 9.502945
										CHANNELS 6 Xposition Yposition Zposition Zrotation Yrotation Xrotation
										JOINT RightHandMiddle2
										{
											OFFSET 0.000000 0.000000 4.568726
											CHANNELS 6 Xposition Yposition Zposition Zrotation Yrotation Xrotation
											JOINT RightHandMiddle3
											{
												OFFSET 0.000000 0.000000 3.654984
												CHANNELS 6 Xposition Yposition Zposition Zrotation Yrotation Xrotation
												JOINT RightHandMiddle4
												{
													OFFSET 0.000000 0.000000 2.741241
													CHANNELS 6 Xposition Yposition Zposition Zrotation Yrotation Xrotation
													End Site
													{
														OFFSET 0.000000 0.000000 0.100006
													}
												}
											}
										}
									}
									JOINT RightHandRing1
									{
										OFFSET 0.086761 2.267456 8.921707
										CHANNELS 6 Xposition Yposition Zposition Zrotation Yrotation Xrotation
										JOINT RightHandRing2
										{
											OFFSET 0.000000 0.000000 4.061096
											CHANNELS 6 Xposition Yposition Zposition Zrotation Yrotation Xrotation
											JOINT RightHandRing3
											{
												OFFSET 0.000000 0.000000 3.654984
												CHANNELS 6 Xposition Yposition Zposition Zrotation Yrotation Xrotation
												JOINT RightHandRing4
												{
													OFFSET 0.000000 0.000000 2.741241
													CHANNELS 6 Xposition Yposition Zposition Zrotation Yrotation Xrotation
													End Site
													{
														OFFSET 0.000000 0.000000 0.100006
													}
												}
											}
										}
									}
									JOINT RightHandPinky1
									{
										OFFSET -0.173492 4.467224 7.976990
										CHANNELS 6 Xposition Yposition Zposition Zrotation Yrotation Xrotation
										JOINT RightHandPinky2
										{
											OFFSET 0.000000 0.000000 3.350403
											CHANNELS 6 Xposition Yposition Zposition Zrotation Yrotation Xrotation
											JOINT RightHandPinky3
											{
												OFFSET 0.000000 0.000000 2.842758
												CHANNELS 6 Xposition Yposition Zposition Zrotation Yrotation Xrotation
												JOINT RightHandPinky4
												{
													OFFSET 0.000000 0.000000 2.639709
													CHANNELS 6 Xposition Yposition Zposition Zrotation Yrotation Xrotation
													End Site
													{
														OFFSET 0.000000 0.000000 0.100006
													}
												}
											}
										}
									}
									JOINT RightForeArmEnd
									{
										OFFSET 0.000000 0.000000 0.000000
										CHANNELS 6 Xposition Yposition Zposition Zrotation Yrotation Xrotation
										End Site
										{
											OFFSET 0.000000 0.000000 0.100006
										}
									}
								}
								JOINT RightArmEnd
								{
									OFFSET 0.000000 0.000000 0.000000
									CHANNELS 6 Xposition Yposition Zposition Zrotation Yrotation Xrotation
									End Site
									{
										OFFSET 0.000000 0.000000 0.100006
									}
								}
							}
						}
					}
					JOINT LeftShoulder
					{
						OFFSET 2.625397 0.000000 11.175217
						CHANNELS 6 Xposition Yposition Zposition Zrotation Yrotation Xrotation
						JOINT LeftArm
						{
							OFFSET 0.000000 0.000000 10.813629
							CHANNELS 6 Xposition Yposition Zposition Zrotation Yrotation Xrotation
							JOINT LeftForeArm
							{
								OFFSET 0.000000 0.000000 28.724777
								CHANNELS 6 Xposition Yposition Zposition Zrotation Yrotation Xrotation
								JOINT LeftHand
								{
									OFFSET 0.644379 0.328857 25.716171
									CHANNELS 6 Xposition Yposition Zposition Zrotation Yrotation Xrotation
									JOINT LeftHandThumb1
									{
										OFFSET 2.867310 -2.944275 3.959564
										CHANNELS 6 Xposition Yposition Zposition Zrotation Yrotation Xrotation
										JOINT LeftHandThumb2
										{
											OFFSET 0.000000 0.000000 3.350403
											CHANNELS 6 Xposition Yposition Zposition Zrotation Yrotation Xrotation
											JOINT LeftHandThumb3
											{
												OFFSET 0.000000 0.000000 3.756516
												CHANNELS 6 Xposition Yposition Zposition Zrotation Yrotation Xrotation
												JOINT LeftHandThumb4
												{
													OFFSET 0.000000 0.000000 3.100006
													CHANNELS 6 Xposition Yposition Zposition Zrotation Yrotation Xrotation
													End Site
													{
														OFFSET 0.000000 0.000000 0.100006
													}
												}
											}
										}
									}
									JOINT LeftHandIndex1
									{
										OFFSET 0.086761 -2.345276 10.030899
										CHANNELS 6 Xposition Yposition Zposition Zrotation Yrotation Xrotation
										JOINT LeftHandIndex2
										{
											OFFSET 0.000000 0.000000 4.061096
											CHANNELS 6 Xposition Yposition Zposition Zrotation Yrotation Xrotation
											JOINT LeftHandIndex3
											{
												OFFSET 0.000000 0.000000 3.248871
												CHANNELS 6 Xposition Yposition Zposition Zrotation Yrotation Xrotation
												JOINT LeftHandIndex4
												{
													OFFSET 0.000000 0.000000 2.639709
													CHANNELS 6 Xposition Yposition Zposition Zrotation Yrotation Xrotation
													End Site
													{
														OFFSET 0.000000 0.000000 0.100006
													}
												}
											}
										}
									}
									JOINT LeftHandMiddle1
									{
										OFFSET -0.104095 -0.006775 9.502945
										CHANNELS 6 Xposition Yposition Zposition Zrotation Yrotation Xrotation
										JOINT LeftHandMiddle2
										{
											OFFSET 0.000000 0.000000 4.568726
											CHANNELS 6 Xposition Yposition Zposition Zrotation Yrotation Xrotation
											JOINT LeftHandMiddle3
											{
												OFFSET 0.000000 0.000000 3.654984
												CHANNELS 6 Xposition Yposition Zposition Zrotation Yrotation Xrotation
												JOINT LeftHandMiddle4
												{
													OFFSET 0.000000 0.000000 2.741241
													CHANNELS 6 Xposition Yposition Zposition Zrotation Yrotation Xrotation
													End Site
													{
														OFFSET 0.000000 0.000000 0.100006
													}
												}
											}
										}
									}
									JOINT LeftHandRing1
									{
										OFFSET -0.086761 2.267456 8.921707
										CHANNELS 6 Xposition Yposition Zposition Zrotation Yrotation Xrotation
										JOINT LeftHandRing2
										{
											OFFSET 0.000000 0.000000 4.061096
											CHANNELS 6 Xposition Yposition Zposition Zrotation Yrotation Xrotation
											JOINT LeftHandRing3
											{
												OFFSET 0.000000 0.000000 3.654984
												CHANNELS 6 Xposition Yposition Zposition Zrotation Yrotation Xrotation
												JOINT LeftHandRing4
												{
													OFFSET 0.000000 0.000000 2.741241
													CHANNELS 6 Xposition Yposition Zposition Zrotation Yrotation Xrotation
													End Site
													{
														OFFSET 0.000000 0.000000 0.100006
													}
												}
											}
										}
									}
									JOINT LeftHandPinky1
									{
										OFFSET 0.173492 4.467224 7.976990
										CHANNELS 6 Xposition Yposition Zposition Zrotation Yrotation Xrotation
										JOINT LeftHandPinky2
										{
											OFFSET 0.000000 0.000000 3.350403
											CHANNELS 6 Xposition Yposition Zposition Zrotation Yrotation Xrotation
											JOINT LeftHandPinky3
											{
												OFFSET 0.000000 0.000000 2.842758
												CHANNELS 6 Xposition Yposition Zposition Zrotation Yrotation Xrotation
												JOINT LeftHandPinky4
												{
													OFFSET 0.000000 0.000000 2.639709
													CHANNELS 6 Xposition Yposition Zposition Zrotation Yrotation Xrotation
													End Site
													{
														OFFSET 0.000000 0.000000 0.100006
													}
												}
											}
										}
									}
									JOINT LeftForeArmEnd
									{
										OFFSET 0.000000 0.000000 0.000000
										CHANNELS 6 Xposition Yposition Zposition Zrotation Yrotation Xrotation
										End Site
										{
											OFFSET 0.000000 0.000000 0.100006
										}
									}
								}
								JOINT LeftArmEnd
								{
									OFFSET 0.000000 0.000000 0.000000
									CHANNELS 6 Xposition Yposition Zposition Zrotation Yrotation Xrotation
									End Site
									{
										OFFSET 0.000000 0.000000 0.100006
									}
								}
							}
						}
					}
				}
			}
		}
	}
	JOINT RightUpLeg
	{
		OFFSET -11.289948 0.000000 0.000000
		CHANNELS 6 Xposition Yposition Zposition Zrotation Yrotation Xrotation
		JOINT RightLeg
		{
			OFFSET 0.000000 0.000000 -38.200329
			CHANNELS 6 Xposition Yposition Zposition Zrotation Yrotation Xrotation
			JOINT RightFoot
			{
				OFFSET 0.000000 0.000000 -39.900856
				CHANNELS 6 Xposition Yposition Zposition Zrotation Yrotation Xrotation
				JOINT RightToeBase
				{
					OFFSET 0.000000 -15.261658 0.000001
					CHANNELS 6 Xposition Yposition Zposition Zrotation Yrotation Xrotation
					JOINT RightToeBaseEnd
					{
						OFFSET 0.000000 -7.370728 0.000000
						CHANNELS 6 Xposition Yposition Zposition Zrotation Yrotation Xrotation
						End Site
						{
							OFFSET 0.000000 0.000000 0.100000
						}
					}
				}
				JOINT RightLegEnd
				{
					OFFSET 0.000000 0.000000 0.000000
					CHANNELS 6 Xposition Yposition Zposition Zrotation Yrotation Xrotation
					End Site
					{
						OFFSET 0.000000 0.000000 0.100000
					}
				}
			}
			JOINT RightUpLegEnd
			{
				OFFSET 0.000000 0.000000 0.000000
				CHANNELS 6 Xposition Yposition Zposition Zrotation Yrotation Xrotation
				End Site
				{
					OFFSET 0.000000 0.000000 0.099998
				}
			}
		}
	}
	JOINT LeftUpLeg
	{
		OFFSET 11.315674 0.000000 0.000000
		CHANNELS 6 Xposition Yposition Zposition Zrotation Yrotation Xrotation
		JOINT LeftLeg
		{
			OFFSET 0.000000 0.000000 -38.200329
			CHANNELS 6 Xposition Yposition Zposition Zrotation Yrotation Xrotation
			JOINT LeftFoot
			{
				OFFSET 0.000000 0.000000 -39.900856
				CHANNELS 6 Xposition Yposition Zposition Zrotation Yrotation Xrotation
				JOINT LeftToeBase
				{
					OFFSET 0.000000 -15.261658 0.000001
					CHANNELS 6 Xposition Yposition Zposition Zrotation Yrotation Xrotation
					JOINT LeftToeBaseEnd
					{
						OFFSET 0.000000 -7.539978 0.000000
						CHANNELS 6 Xposition Yposition Zposition Zrotation Yrotation Xrotation
						End Site
						{
							OFFSET 0.000000 0.000000 0.100000
						}
					}
				}
				JOINT LeftLegEnd
				{
					OFFSET 0.000000 0.000000 0.000000
					CHANNELS 6 Xposition Yposition Zposition Zrotation Yrotation Xrotation
					End Site
					{
						OFFSET 0.000000 0.000000 0.100000
					}
				}
			}
			JOINT LeftUpLegEnd
			{
				OFFSET 0.000000 0.000000 0.000000
				CHANNELS 6 Xposition Yposition Zposition Zrotation Yrotation Xrotation
				End Site
				{
					OFFSET 0.000000 0.000000 0.099998
				}
			}
		}
	}
}
MOTION
Frames: 2
Frame Time: 0.016667
-34.674377 -26.998108 88.550804 10.588632 -0.352024 -7.985871 -0.000013 2.080092 8.814258 0.099002 -0.456372 5.559218 0.000002 0.000010 8.844131 0.250379 1.666597 -0.550302 0.000007 -0.000019 11.682277 -2.149332 -0.121148 3.025607 -0.000009 -0.000017 11.746713 -0.692175 -0.392194 1.743026 0.000011 0.000003 17.658295 1.452736 -7.888898 9.938599 0.000026 -0.000019 5.101531 4.148044 -1.064858 -0.427479 0.000020 0.000009 5.101545 -0.688808 1.063746 -14.994705 0.000006 0.000000 11.655072 0.000000 -0.000000 0.000000 -2.625414 -0.000021 11.175203 12.436358 -94.928257 0.227767 -0.000008 -0.000034 10.434723 -67.784560 -26.620287 62.187158 -0.000006 0.000011 29.628428 7.113257 0.019622 27.489457 -0.000031 -0.000113 22.857620 13.124068 -8.782810 -3.942501 -2.867336 -2.944275 3.959549 31.542090 -18.150154 50.178722 0.000000 0.000015 3.350418 -14.636452 9.151788 -26.138039 0.000008 0.000023 3.756516 -9.712270 7.081425 -17.867964 -0.000017 -0.000010 3.147359 0.000002 0.000000 0.000001 -0.086761 -2.345264 10.030907 -13.249390 -21.362598 8.012758 0.000005 0.000012 4.061100 0.187570 -15.705668 2.264879 -0.000001 -0.000017 3.248903 -0.312414 -15.705685 2.264893 -0.000036 -0.000004 2.639707 0.000001 0.000004 -0.000002 0.104084 -0.006809 9.502945 -7.578051 -20.573594 4.836044 0.000025 0.000001 4.568742 0.397027 -14.795004 0.793090 0.000005 0.000009 3.655005 -0.102982 -14.794815 0.793122 -0.000002 0.000007 2.741263 -0.000000 -0.000001 0.000002 0.086767 2.267453 8.921724 0.849248 -21.796392 2.981526 0.000007 -0.000013 4.061106 -0.871932 -15.260248 -0.956054 0.000000 -0.000019 3.654986 0.128212 -15.259170 -0.956400 0.000006 0.000001 2.741257 0.000000 -0.000002 0.000000 -0.173492 4.467249 7.976990 10.049620 -21.535508 -0.660262 -0.000004 0.000031 3.350388 -1.621249 -14.730585 -2.929409 -0.000002 -0.000008 2.842781 0.378740 -14.730567 -2.929403 0.000008 0.000010 2.639707 -0.000001 -0.000005 -0.000004 -0.000022 -0.000016 -0.000008 0.000003 0.000000 0.000001 -0.000002 0.000007 -0.000005 -0.000000 0.000004 0.000001 2.625414 -0.000012 11.175221 -9.692781 91.433905 -0.287460 -0.000038 -0.000028 10.813629 65.507395 34.799421 57.535212 -0.000000 -0.000039 28.724720 2.121855 0.349406 37.740186 0.644344 0.328876 25.716190 7.566758 -2.671163 -15.743005 2.867294 -2.944244 3.959610 -31.703180 22.752518 43.624271 0.000008 0.000015 3.350403 24.916948 -11.044839 -42.730241 -0.000004 0.000000 3.756527 16.445212 -9.710286 -29.105079 -0.000016 0.000010 3.100003 -0.000002 -0.000003 -0.000002 0.086761 -2.345277 10.030895 0.022981 55.927740 -8.164315 0.000006 0.000001 4.061085 -1.938256 39.810505 -6.726964 -0.000010 -0.000024 3.248848 -2.438241 39.810482 -6.726922 -0.000002 -0.000006 2.639705 0.000000 0.000001 -0.000001 -0.104088 -0.006789 9.502950 8.382677 55.070671 2.782278 -0.000004 -0.000006 4.568735 -0.369651 39.149818 -2.445358 0.000010 -0.000012 3.655001 -0.869657 39.149811 -2.445351 -0.000001 -0.000003 2.741240 -0.000000 -0.000000 0.000003 -0.086742 2.267445 8.921707 25.327467 57.701602 23.432514 0.000038 0.000019 4.061102 0.244780 42.435521 3.205572 -0.000003 -0.000028 3.655027 1.244769 42.435515 3.205576 -0.000001 0.000014 2.741227 -0.000002 0.000001 0.000002 0.173485 4.467146 7.976959 37.659696 52.892339 40.497127 -0.000011 -0.000079 3.350388 1.890357 42.052348 10.098583 -0.000002 -0.000074 2.842773 3.890366 42.052310 10.098619 -0.000040 -0.000044 2.639725 -0.000002 0.000001 -0.000001 0.000020 -0.000005 0.000002 0.000001 0.000001 -0.000001 0.000019 0.000016 0.000020 -0.000002 0.000001 -0.000003 -11.289935 -0.000025 0.000018 -12.663218 0.225135 11.861080 0.000015 -0.000025 -38.200344 -0.574664 0.043758 4.372815 0.000022 -0.000028 -39.900864 -12.151307 2.131349 17.315054 0.000025 -15.261692 -0.000002 0.913772 1.059101 -16.891821 0.000003 -7.370727 -0.000001 -0.000000 0.000000 0.000000 0.000020 -0.000001 0.000000 0.000000 0.000000 0.000003 0.000031 0.000001 0.000002 -0.000000 0.000000 0.000001 11.315687 -0.000004 0.000006 -8.440730 0.935734 6.955685 0.000016 -0.000038 -38.200336 0.604654 -0.117309 10.550996 0.000002 0.000005 -39.900845 7.531271 -0.861485 16.631244 -0.000003 -15.261630 -0.000009 -0.608259 -1.059244 -19.500552 -0.000043 -7.539977 -0.000001 -0.000000 -0.000000 0.000000 -0.000026 0.000062 -0.000003 -0.000000 -0.000000 0.000002 -0.000001 -0.000001 -0.000006 0.000000 0.000000 -0.000001 
-34.654877 -27.038391 88.557846 10.547546 -0.394782 -8.017170 -0.000012 2.080079 8.814258 0.090772 -0.488263 5.547203 0.000004 0.000018 8.844145 0.258048 1.616282 -0.496744 0.000005 0.000027 11.682281 -1.976703 -0.003183 2.963803 -0.000016 -0.000010 11.746708 -0.629936 -0.324000 1.755854 0.000008 0.000002 17.658283 1.464954 -7.646725 9.751767 0.000008 0.000012 5.101514 4.072955 -1.054830 -0.494718 -0.000014 0.000013 5.101566 -0.694274 1.039127 -14.986694 0.000001 -0.000001 11.655056 0.000000 0.000000 0.000001 -2.625399 -0.000002 11.175200 12.544653 -94.743856 0.225273 -0.000008 -0.000038 10.434750 -67.513585 -27.360561 62.278102 -0.000012 0.000000 29.628414 6.203988 0.006425 26.881012 -0.000031 -0.000100 22.857597 14.266541 -8.862476 -4.010176 -2.867252 -2.944290 3.959564 31.530192 -18.328305 49.914029 0.000015 0.000008 3.350422 -15.033120 9.283042 -26.791432 0.000004 0.000019 3.756523 -9.970008 7.211251 -18.309603 -0.000010 -0.000003 3.147336 -0.000000 -0.000001 -0.000000 -0.086731 -2.345263 10.030922 -13.646694 -22.766006 8.773806 -0.000008 0.000031 4.061136 0.142531 -16.762013 2.426050 -0.000010 0.000003 3.248890 -0.357479 -16.761865 2.426049 0.000043 -0.000006 2.639714 0.000000 0.000003 -0.000002 0.104107 -0.006771 9.502968 -7.825910 -21.640314 5.278699 0.000003 -0.000013 4.568727 0.385577 -15.571312 0.836801 0.000010 0.000064 3.654969 -0.114413 -15.571472 0.836804 -0.000002 0.000001 2.741260 -0.000001 -0.000002 0.000002 0.086775 2.267435 8.921736 0.821267 -21.969594 3.152061 0.000003 -0.000000 4.061133 -0.865077 -15.372613 -0.964794 0.000010 0.000015 3.654978 0.134469 -15.372509 -0.964673 -0.000002 0.000011 2.741250 -0.000001 -0.000007 -0.000002 -0.173454 4.467216 7.976993 10.128164 -20.845020 -0.434408 0.000013 0.000031 3.350414 -1.647385 -14.226998 -2.824896 -0.000016 0.000027 2.842756 0.352604 -14.227211 -2.824889 0.000010 -0.000008 2.639732 0.000001 -0.000005 -0.000002 0.000017 -0.000010 0.000007 0.000002 0.000000 0.000001 -0.000001 0.000004 0.000005 -0.000000 0.000001 0.000000 2.625392 0.000002 11.175195 -9.747056 91.166701 -0.300792 -0.000023 -0.000012 10.813622 65.126359 34.923611 57.423374 -0.000001 -0.000038 28.724739 2.572195 0.350026 37.609781 0.644312 0.328903 25.716194 6.620694 -2.215444 -15.508467 2.867331 -2.944275 3.959595 -31.703153 22.752547 43.624309 -0.000008 -0.000038 3.350403 24.916945 -11.044832 -42.730241 -0.000023 -0.000023 3.756535 16.445216 -9.710293 -29.105123 -0.000010 0.000022 3.100020 -0.000003 -0.000001 -0.000003 0.086784 -2.345266 10.030899 0.000243 55.659956 -8.531976 -0.000004 0.000025 4.061085 -1.915626 39.662584 -6.691558 -0.000015 0.000020 3.248878 -2.415616 39.662560 -6.691537 -0.000030 -0.000002 2.639702 -0.000000 0.000001 -0.000000 -0.104103 -0.006783 9.502949 8.272412 54.764385 2.278102 0.000000 -0.000013 4.568735 -0.358664 38.949133 -2.427909 -0.000028 -0.000026 3.654943 -0.858646 38.949236 -2.427882 -0.000002 -0.000017 2.741235 0.000001 -0.000000 0.000004 -0.086765 2.267463 8.921707 25.000811 57.357203 22.608602 0.000032 -0.000117 4.061094 0.222288 42.136779 3.172137 0.000008 -0.000034 3.654970 1.222277 42.136779 3.172146 -0.000031 -0.000013 2.741240 0.000002 -0.000002 -0.000001 0.173496 4.467236 7.976997 37.322647 52.606185 39.568754 -0.000015 -0.000094 3.350395 1.811408 41.720353 9.980337 -0.000025 -0.000099 2.842796 3.811423 41.720360 9.980350 -0.000058 -0.000056 2.639717 -0.000001 0.000003 0.000003 0.000008 0.000003 -0.000003 0.000000 0.000000 0.000000 0.000003 -0.000003 -0.000003 -0.000000 0.000002 -0.000000 -11.289953 -0.000034 0.000015 -12.719365 0.307338 11.892012 -0.000007 -0.000011 -38.200329 -0.577387 0.044472 4.398170 -0.000012 -0.000019 -39.900848 -12.047815 2.113724 17.292328 0.000002 -15.261648 -0.000001 0.913216 1.067570 -16.869999 0.000002 -7.370722 0.000001 -0.000001 -0.000000 -0.000000 0.000010 -0.000005 0.000000 0.000001 0.000000 -0.000001 0.000002 -0.000000 -0.000005 -0.000000 -0.000000 -0.000001 11.315675 0.000005 0.000004 -8.345102 0.978476 7.051982 -0.000004 0.000003 -38.200325 0.604104 -0.116191 10.468448 0.000017 -0.000032 -39.900856 7.477553 -0.896619 16.715875 0.000013 -15.261721 0.000012 -0.609338 -1.053630 -19.476619 -0.000019 -7.539917 0.000001 -0.000000 -0.000000 -0.000001 -0.000026 0.000002 0.000003 -0.000000 0.000000 0.000000 -0.000001 0.000002 -0.000000 -0.000000 0.000000 -0.000000 
